<svg width="24" height="24" viewBox="0 0 24 24" fill="none" xmlns="http://www.w3.org/2000/svg">
    <path d="M19.1111 10.5789H4.88889V17.4946C4.88889 18.0325 4.88934 18.4093 4.91059 18.7028C4.93149 18.9915 4.97036 19.1594 5.02778 19.2866C5.14957 19.5563 5.34173 19.7703 5.57205 19.9028C5.67629 19.9627 5.81584 20.0055 6.06597 20.0286C6.32236 20.0522 6.65315 20.0526 7.13108 20.0526H16.8689C17.3468 20.0526 17.6776 20.0522 17.934 20.0286C18.1842 20.0055 18.3237 19.9627 18.428 19.9028C18.6583 19.7703 18.8505 19.5562 18.9722 19.2866C19.0296 19.1594 19.0685 18.9915 19.0894 18.7028C19.1107 18.4093 19.1111 18.0325 19.1111 17.4946V10.5789ZM15.7535 6.78947V5.84211H8.24653L8.2474 6.78947C8.2474 7.05093 8.04821 7.26291 7.80295 7.26316C7.55749 7.26317 7.35852 7.05108 7.35851 6.78947L7.35764 5.84211H7.13108C6.65315 5.84211 6.32236 5.84252 6.06597 5.86616C5.81584 5.88926 5.67629 5.93204 5.57205 5.99198C5.3417 6.12448 5.14955 6.33849 5.02778 6.60814C4.97035 6.73532 4.93149 6.90326 4.91059 7.19192C4.88934 7.48541 4.88889 7.86222 4.88889 8.40019V9.63158H19.1111V8.40019C19.1111 7.86222 19.1107 7.48541 19.0894 7.19192C19.0685 6.90326 19.0296 6.73532 18.9722 6.60814C18.8505 6.33852 18.6583 6.1245 18.428 5.99198C18.3237 5.93205 18.1842 5.88926 17.934 5.86616C17.6776 5.84252 17.3468 5.84211 16.8689 5.84211H16.6424V6.78947C16.6424 7.05108 16.4425 7.26316 16.197 7.26316C15.9518 7.26291 15.7535 7.05093 15.7535 6.78947ZM20 17.4946C20 18.0177 20.0002 18.4375 19.9757 18.7759C19.9508 19.119 19.899 19.4193 19.7734 19.6974C19.5984 20.0852 19.3297 20.4132 18.9965 20.6438L18.8498 20.7363C18.595 20.8829 18.3199 20.9437 18.0104 20.9722C17.7068 21.0002 17.3313 21 16.8689 21H7.13108C6.66867 21 6.29316 21.0002 5.98958 20.9722C5.7188 20.9473 5.47411 20.8983 5.24653 20.7881L5.15017 20.7363C4.74881 20.5056 4.42665 20.1405 4.22656 19.6974C4.10103 19.4193 4.04916 19.119 4.02431 18.7759C3.9998 18.4375 4 18.0177 4 17.4946V8.40019C4 7.87699 3.9998 7.45724 4.02431 7.11883C4.04916 6.77576 4.10103 6.4754 4.22656 6.19737C4.42667 5.75416 4.74885 5.3892 5.15017 5.15841L5.24653 5.1066C5.47411 4.99645 5.7188 4.94747 5.98958 4.92249C6.29316 4.8945 6.66867 4.89474 7.13108 4.89474H7.35764V3.47368C7.35764 3.21221 7.5568 3.00022 7.80208 3C8.04754 3 8.24653 3.21208 8.24653 3.47368V4.89474H15.7535V3.47368C15.7535 3.21208 15.9525 3 16.1979 3C16.4432 3.00022 16.6424 3.21221 16.6424 3.47368V4.89474H16.8689C17.3313 4.89474 17.7068 4.8945 18.0104 4.92249C18.3199 4.95104 18.595 5.01189 18.8498 5.15841C19.2511 5.38918 19.5733 5.75411 19.7734 6.19737C19.899 6.4754 19.9508 6.77576 19.9757 7.11883C20.0002 7.45724 20 7.87699 20 8.40019V17.4946Z" fill="currentColor" />
</svg>