<svg width="24" height="24" viewBox="0 0 24 24" fill="none" xmlns="http://www.w3.org/2000/svg">
    <path d="M19.5 7.19727C19.5 6.63006 19.4998 6.2338 19.4746 5.92578C19.4499 5.62378 19.4039 5.44976 19.3369 5.31836C19.1934 5.03682 18.9634 4.80714 18.6807 4.66309C18.549 4.59597 18.3746 4.55011 18.0723 4.52539C17.7641 4.50023 17.3679 4.5 16.7998 4.5H7.2002C6.6319 4.5 6.23529 4.50019 5.92676 4.52539C5.62423 4.55012 5.44996 4.59603 5.31836 4.66309C5.03625 4.80686 4.80686 5.03625 4.66309 5.31836C4.59603 5.44996 4.55012 5.62423 4.52539 5.92676C4.50019 6.23529 4.5 6.6319 4.5 7.2002V16.7998C4.5 17.3681 4.50019 17.7649 4.52539 18.0732C4.55009 18.3753 4.5961 18.5491 4.66309 18.6807C4.80701 18.9631 5.03654 19.1933 5.31836 19.3369C5.44976 19.4039 5.62378 19.4499 5.92578 19.4746C6.2338 19.4998 6.63006 19.5 7.19727 19.5H16.8027C17.3698 19.5 17.7655 19.4998 18.0732 19.4746C18.3752 19.4499 18.5492 19.4039 18.6807 19.3369C18.9631 19.193 19.1933 18.9626 19.3369 18.6807C19.4038 18.5492 19.4499 18.3758 19.4746 18.0742C19.4998 17.7664 19.5 17.3709 19.5 16.8037V7.19727ZM15.6162 8.67969C15.793 8.46781 16.1083 8.43951 16.3203 8.61621C16.5322 8.79304 16.5605 9.10827 16.3838 9.32031L11.3838 15.3203C11.2939 15.4281 11.1627 15.4927 11.0225 15.499C10.8822 15.5053 10.7458 15.4528 10.6465 15.3535L7.64648 12.3535C7.45122 12.1583 7.45122 11.8417 7.64648 11.6465C7.84175 11.4512 8.15825 11.4512 8.35352 11.6465L10.9658 14.2588L15.6162 8.67969ZM20.5 16.8037C20.5 17.3543 20.5 17.7973 20.4707 18.1553C20.4409 18.5191 20.3783 18.8389 20.2275 19.1348C19.9878 19.6053 19.6047 19.988 19.1348 20.2275C18.839 20.3783 18.519 20.4409 18.1553 20.4707C17.7973 20.5 17.3534 20.5 16.8027 20.5H7.19727C6.64656 20.5 6.20293 20.5 5.84473 20.4707C5.48083 20.441 5.1611 20.3782 4.86523 20.2275C4.39449 19.9877 4.01199 19.6048 3.77246 19.1348C3.62161 18.8387 3.55907 18.5186 3.5293 18.1543C3.5 17.7958 3.5 17.3516 3.5 16.7998V7.2002C3.5 6.64839 3.5 6.20439 3.5293 5.8457C3.55906 5.48137 3.62168 5.16131 3.77246 4.86523C4.01214 4.39482 4.39482 4.01214 4.86523 3.77246C5.16131 3.62168 5.48137 3.55906 5.8457 3.5293C6.20439 3.5 6.64839 3.5 7.2002 3.5H16.7998C17.3516 3.5 17.7959 3.5 18.1543 3.5293C18.5185 3.55909 18.8387 3.62161 19.1348 3.77246C19.6045 4.01186 19.9877 4.39432 20.2275 4.86523C20.3782 5.1611 20.441 5.48083 20.4707 5.84473C20.5 6.20293 20.5 6.64656 20.5 7.19727V16.8037Z" fill="currentColor" />
</svg>