<svg width="24" height="24" viewBox="0 0 24 24" fill="none" xmlns="http://www.w3.org/2000/svg">
    <path d="M5.5 18V10C5.5 9.72386 5.72386 9.5 6 9.5C6.27614 9.5 6.5 9.72386 6.5 10V18C6.5 19.3808 7.61929 20.5 9 20.5H15C16.3808 20.5 17.5 19.3808 17.5 18V10C17.5 9.72386 17.7239 9.5 18 9.5C18.2761 9.5 18.5 9.72386 18.5 10V18C18.5 19.933 16.933 21.5 15 21.5H9C7.06701 21.5 5.5 19.933 5.5 18ZM9.5 17V12C9.5 11.7239 9.72386 11.5 10 11.5C10.2761 11.5 10.5 11.7239 10.5 12V17C10.5 17.2761 10.2761 17.5 10 17.5C9.72386 17.5 9.5 17.2761 9.5 17ZM13.5 17V12C13.5 11.7239 13.7239 11.5 14 11.5C14.2761 11.5 14.5 11.7239 14.5 12V17C14.5 17.2761 14.2761 17.5 14 17.5C13.7239 17.5 13.5 17.2761 13.5 17ZM14.5 5C14.5 4.17157 13.8285 3.5 13 3.5H11C10.1716 3.5 9.5 4.17157 9.5 5V6.5H14.5V5ZM15.5 6.5H20C20.2761 6.5 20.5 6.72386 20.5 7C20.5 7.27614 20.2761 7.5 20 7.5H4C3.72386 7.5 3.5 7.27614 3.5 7C3.5 6.72386 3.72386 6.5 4 6.5H8.5V5C8.5 3.61929 9.61929 2.5 11 2.5H13C14.3807 2.5 15.5 3.61929 15.5 5V6.5Z" fill="currentColor" />
</svg>