<svg width="18" height="18" viewBox="0 0 18 18" fill="none" xmlns="http://www.w3.org/2000/svg">
    <path d="M16.4988 8.62445C16.4988 8.92282 16.3681 9.20897 16.1355 9.41995C15.9028 9.63093 15.5873 9.74945 15.2583 9.74945H2.7791C2.61303 9.75415 2.44761 9.72854 2.29266 9.67414C2.13772 9.61975 1.9964 9.53767 1.87709 9.43279C1.75779 9.32791 1.66293 9.20237 1.59816 9.0636C1.53338 8.92484 1.5 8.77569 1.5 8.625C1.5 8.47431 1.53338 8.32516 1.59816 8.1864C1.66293 8.04763 1.75779 7.92209 1.87709 7.81721C1.9964 7.71233 2.13772 7.63026 2.29266 7.57586C2.44761 7.52146 2.61303 7.49585 2.7791 7.50055H15.2607C15.5895 7.50084 15.9047 7.61949 16.1371 7.83044C16.3695 8.04138 16.5 8.32737 16.5 8.62555L16.4988 8.62445Z" fill="currentColor" />
</svg>