<svg width="24" height="24" viewBox="0 0 24 24" fill="none" xmlns="http://www.w3.org/2000/svg">
    <path d="M19.5267 22.6666H4.47337C4.32454 22.6675 4.17699 22.6391 4.03916 22.5829C3.90132 22.5268 3.77589 22.444 3.67003 22.3394C3.56417 22.2348 3.47995 22.1103 3.42219 21.9732C3.36443 21.836 3.33425 21.6888 3.33337 21.54V4.45997C3.33733 4.29505 3.37622 4.13285 3.44746 3.98407C3.51871 3.83529 3.6207 3.7033 3.74671 3.59683C3.87271 3.49036 4.01986 3.41182 4.17844 3.36639C4.33703 3.32097 4.50344 3.30969 4.66671 3.3333H6.00004V4.66664H4.66671V21.3333H19.3334V4.66664H18V3.3333H19.5C19.6511 3.32886 19.8015 3.35466 19.9424 3.40921C20.0834 3.46375 20.212 3.54593 20.3207 3.6509C20.4294 3.75588 20.516 3.88154 20.5754 4.02048C20.6348 4.15943 20.6659 4.30885 20.6667 4.45997V21.54C20.6658 21.6888 20.6357 21.836 20.5779 21.9732C20.5201 22.1103 20.4359 22.2348 20.3301 22.3394C20.2242 22.444 20.0988 22.5268 19.9609 22.5829C19.8231 22.6391 19.6755 22.6675 19.5267 22.6666Z" fill="#363945" />
    <path d="M10.9307 17.4003L7.35733 13.8269C7.24896 13.6986 7.193 13.5342 7.20064 13.3664C7.20829 13.1986 7.27897 13.0399 7.39857 12.922C7.51816 12.8041 7.67786 12.7357 7.84572 12.7304C8.01358 12.7251 8.17725 12.7834 8.304 12.8936L10.9307 15.5203L16.6907 9.76028C16.8182 9.65106 16.9823 9.59399 17.15 9.60047C17.3178 9.60695 17.477 9.67651 17.5957 9.79524C17.7144 9.91397 17.784 10.0731 17.7905 10.2409C17.797 10.4087 17.7399 10.5727 17.6307 10.7003L10.9307 17.4003Z" fill="#363945" />
    <path d="M17.3333 7.33335H6.66663V4.88669C6.66838 4.47526 6.8326 4.08118 7.12352 3.79025C7.41445 3.49933 7.80853 3.33511 8.21996 3.33335H9.41329C9.56016 2.75974 9.89376 2.25133 10.3615 1.88826C10.8292 1.52519 11.4045 1.32812 11.9966 1.32812C12.5887 1.32812 13.164 1.52519 13.6318 1.88826C14.0995 2.25133 14.4331 2.75974 14.58 3.33335H15.7733C16.1859 3.33335 16.5817 3.49679 16.874 3.78791C17.1664 4.07902 17.3315 4.47411 17.3333 4.88669V7.33335ZM7.99996 6.00002H16V4.88669C16 4.82834 15.9768 4.77238 15.9355 4.73112C15.8943 4.68987 15.8383 4.66669 15.78 4.66669H13.3333V4.00002C13.3333 3.6464 13.1928 3.30726 12.9428 3.05721C12.6927 2.80716 12.3536 2.66669 12 2.66669C11.6463 2.66669 11.3072 2.80716 11.0572 3.05721C10.8071 3.30726 10.6666 3.6464 10.6666 4.00002V4.66669H8.21996C8.19107 4.66669 8.16246 4.67238 8.13577 4.68343C8.10908 4.69449 8.08482 4.71069 8.0644 4.73112C8.04397 4.75155 8.02776 4.7758 8.01671 4.8025C8.00565 4.82919 7.99996 4.8578 7.99996 4.88669V6.00002Z" fill="#363945" />
</svg>